:SAMPLES-PER-SECOND 30
:FULLY-SPECIFIED
:DEGREES
376
root  24.9348 39.8944 -20.2932 -173.909 -68.9392 173.718
RightUpLeg  -21.8402 -13.7287 -4.4874
RightLeg  25.0994 -5.80889 -3.2328
RightFoot  -6.1063 -0.21082 3.71667
RightToes  0.000482159 0.542163 -0.142577
Spine  17.1703 -1.32899 0.722189
Spine1  7.96882 -1.2766 -0.282226
HEad  -7.88261 16.2417 -10.5552
LeftShoulder1  9.2888 -14.1356 -45.9237
LeftArm  -11.5704 12.5802 -23.1222
LeftForeArm  28.3996 -73.8539 -40.6844
LeftHand  -0.25398 0.0180481 5.50724
RightShoulder  4.72313 8.62484 33.0004
RightArm  -10.2388 -24.8137 22.76
RightForeArm  44.5355 77.1647 106.407
RightHand  1.10696 -15.0902 -13.9448
LeftUpLeg  2.23372 1.26855 -7.82928
LeftLeg  4.85495 17.5712 -4.56138
LeftFoot  -11.2006 0.0657946 1.5636
LeftToes  1.06247e-005 4.65855e-005 -8.18501e-006
377
root  23.5184 39.6772 -20.5418 -170.599 -71.1782 170.363
RightUpLeg  -24.4098 -14.6674 -2.76408
RightLeg  19.1923 -4.3465 -1.73572
RightFoot  -4.7087 -0.26789 4.10179
RightToes  0.000482159 0.542163 -0.142577
Spine  15.7852 -1.1719 -0.960561
Spine1  8.38506 -1.42895 0.0973477
HEad  -6.6035 14.4593 -8.86027
LeftShoulder1  9.13179 -13.9287 -45.6751
LeftArm  -12.0648 12.6149 -23.2562
LeftForeArm  30.0145 -74.3198 -42.2127
LeftHand  -0.25398 0.0180481 5.50724
RightShoulder  4.74069 8.65162 33.0589
RightArm  -10.5247 -25.1113 23.1415
RightForeArm  47.3214 76.9869 108.981
RightHand  1.13054 -15.5975 -13.5575
LeftUpLeg  4.49909 0.688963 -9.44293
LeftLeg  4.97674 16.1323 -4.01231
LeftFoot  -12.5342 0.100738 2.40914
LeftToes  1.06247e-005 4.65855e-005 -8.18501e-006
378
root  22.0116 39.4451 -20.7968 -167.238 -74.1051 166.635
RightUpLeg  -25.0918 -13.4034 -2.70736
RightLeg  11.6901 -6.61808 0.543764
RightFoot  -3.04836 -0.304975 3.89022
RightToes  0.000482159 0.542163 -0.142577
Spine  14.783 -1.41937 -2.03197
Spine1  8.90801 -1.96444 0.623875
HEad  -5.63561 12.4353 -7.3777
LeftShoulder1  9.03202 -13.7896 -45.5342
LeftArm  -12.2902 12.416 -23.1516
LeftForeArm  31.4135 -74.7104 -43.6058
LeftHand  -0.25398 0.0180481 5.50724
RightShoulder  4.7478 8.64392 33.1418
RightArm  -11.2208 -25.6841 23.7301
RightForeArm  51.4436 76.7046 112.456
RightHand  1.15245 -16.5099 -12.7281
LeftUpLeg  7.46754 0.498119 -10.354
LeftLeg  5.10713 13.7268 -3.72498
LeftFoot  -13.8872 0.157799 3.33309
LeftToes  1.06247e-005 4.65855e-005 -8.18501e-006
379
root  20.3963 39.1693 -21.0518 -163.622 -76.7548 162.58
RightUpLeg  -24.2994 -8.31597 -5.01526
RightLeg  3.48266 -15.0755 4.12075
RightFoot  -1.81461 -0.455743 5.32877
RightToes  0.000482159 0.542163 -0.142577
Spine  13.6826 -1.66741 -2.39959
Spine1  9.59164 -2.2894 0.715438
HEad  -4.79332 10.299 -6.16837
LeftShoulder1  8.97944 -13.7359 -45.4054
LeftArm  -12.1584 12.0111 -22.9918
LeftForeArm  31.5236 -74.7509 -43.7735
LeftHand  -0.25398 0.0180481 5.50724
RightShoulder  4.78325 8.64176 33.4391
RightArm  -12.235 -26.4569 24.2432
RightForeArm  55.4048 76.3865 115.715
RightHand  1.16407 -17.2252 -12.1129
LeftUpLeg  10.6827 0.929137 -10.4826
LeftLeg  5.39444 10.8797 -3.79381
LeftFoot  -15.561 0.225028 3.60843
LeftToes  1.06247e-005 4.65855e-005 -8.18501e-006
380
root  18.6288 38.8045 -21.3207 -159.48 -78.4383 157.9
RightUpLeg  -23.5181 -7.89192 -4.80977
RightLeg  -2.50438 -18.5648 6.97432
RightFoot  -2.4943 -0.623099 7.85663
RightToes  0.000482159 0.542163 -0.142577
Spine  12.3084 -1.66863 -2.76588
Spine1  10.3329 -2.28135 0.664027
HEad  -3.75946 8.46788 -5.37719
LeftShoulder1  8.94059 -13.6866 -45.3362
LeftArm  -11.9424 11.8625 -22.9324
LeftForeArm  30.7784 -74.5793 -43.174
LeftHand  -0.25398 0.0180481 5.50724
RightShoulder  4.82813 8.63243 33.8368
RightArm  -12.9852 -26.9007 24.4434
RightForeArm  57.3408 76.1817 117.495
RightHand  1.20875 -17.7006 -12.0775
LeftUpLeg  13.7989 1.79214 -10.2272
LeftLeg  6.56966 8.15372 -4.07883
LeftFoot  -17.3663 0.254177 2.85748
LeftToes  1.06247e-005 4.65855e-005 -8.18501e-006
381
root  16.7243 38.4324 -21.602 -154.936 -79.7958 152.845
RightUpLeg  -23.0399 -7.79471 -3.94033
RightLeg  -3.40956 -19.3681 8.17189
RightFoot  -3.98511 -0.560441 8.17026
RightToes  0.000482159 0.542163 -0.142577
Spine  10.7077 -1.66222 -3.25049
Spine1  11.1181 -2.49707 1.29512
HEad  -2.4397 7.17936 -5.06887
LeftShoulder1  8.89034 -13.5674 -45.3983
LeftArm  -11.6904 12.365 -22.8698
LeftForeArm  30.3418 -74.5207 -43.0291
LeftHand  -0.25398 0.0180481 5.50724
RightShoulder  4.7954 8.53545 33.8839
RightArm  -13.0868 -27.0676 24.5097
RightForeArm  58.1833 76.0344 118.61
RightHand  1.28753 -18.0724 -12.4337
LeftUpLeg  16.8737 2.95546 -9.54585
LeftLeg  8.28704 5.09874 -4.33173
LeftFoot  -18.2717 0.224778 1.89282
LeftToes  1.06247e-005 4.65855e-005 -8.18501e-006
382
root  14.7238 38.1541 -21.8639 -151.187 -81.6759 148.801
RightUpLeg  -23.5442 -7.27696 -2.48052
RightLeg  0.965372 -18.2348 6.82634
RightFoot  -3.07847 -0.289162 3.96696
RightToes  0.000482159 0.542163 -0.142577
Spine  9.2184 -1.95626 -2.65717
Spine1  11.61 -3.05297 2.1264
HEad  -1.00034 6.18635 -5.15615
LeftShoulder1  8.83303 -13.415 -45.5159
LeftArm  -11.0941 13.3678 -22.7394
LeftForeArm  30.06 -74.5139 -43.0806
LeftHand  -0.25398 0.0180481 5.50724
RightShoulder  4.65355 8.30205 33.4725
RightArm  -12.8252 -27.7867 24.7057
RightForeArm  60.2037 75.7732 120.543
RightHand  1.33818 -18.1621 -12.7901
LeftUpLeg  19.7733 5.89734 -7.23862
LeftLeg  10.4496 -0.202451 -4.29967
LeftFoot  -18.0794 0.167039 1.0402
LeftToes  1.06247e-005 4.65855e-005 -8.18501e-006
383
root  12.6699 37.9588 -22.0609 -152.943 -83.651 150.409
RightUpLeg  -25.5853 -8.96271 0.791882
RightLeg  9.06581 -13.7538 3.56919
RightFoot  0.678735 0.36429 -3.30096
RightToes  0.000482159 0.542163 -0.142577
Spine  8.41031 -2.36676 0.107894
Spine1  11.3117 -3.23065 1.82592
HEad  0.175221 5.24153 -5.50268
LeftShoulder1  8.80369 -13.3128 -45.6446
LeftArm  -10.2449 14.5113 -22.6651
LeftForeArm  29.2325 -74.3055 -42.3719
LeftHand  -0.25398 0.0180481 5.50724
RightShoulder  4.52473 8.07696 33.1295
RightArm  -12.5668 -29.1445 24.7673
RightForeArm  62.6282 75.5431 122.222
RightHand  1.31137 -17.792 -12.908
LeftUpLeg  21.8127 11.3324 -2.61492
LeftLeg  14.4453 -8.16319 -4.25172
LeftFoot  -16.8187 0.0356591 -1.31844
LeftToes  1.06247e-005 4.65855e-005 -8.18501e-006
384
root  10.6954 37.8087 -22.2101 -165.327 -84.6375 162.707
RightUpLeg  -28.3707 -14.8227 6.46035
RightLeg  17.5633 -5.01483 -0.105357
RightFoot  4.02786 1.23256 -9.01225
RightToes  0.000482159 0.542163 -0.142577
Spine  8.48995 -2.51945 3.99105
Spine1  10.5326 -2.70728 0.68825
HEad  0.620049 4.54151 -5.94357
LeftShoulder1  8.84888 -13.2813 -45.9758
LeftArm  -9.78621 15.6328 -22.5795
LeftForeArm  28.468 -74.0546 -41.4917
LeftHand  -0.25398 0.0180481 5.50724
RightShoulder  4.55105 8.11066 33.2405
RightArm  -12.1274 -29.8354 24.2234
RightForeArm  62.103 75.732 121.047
RightHand  1.24259 -17.1429 -12.9326
LeftUpLeg  21.2322 14.5962 1.77338
LeftLeg  22.1764 -13.5793 -5.42367
LeftFoot  -12.3368 0.0473138 -6.46944
LeftToes  1.06247e-005 4.65855e-005 -8.18501e-006
385
root  8.94209 37.6658 -22.402 174.38 -84.7017 -177.141
RightUpLeg  -29.579 -15.5046 9.10829
RightLeg  24.3347 -3.71703 -2.32118
RightFoot  3.67252 1.50268 -11.1898
RightToes  0.000482159 0.542163 -0.142577
Spine  9.25732 -2.49423 7.03375
Spine1  10.2172 -2.18168 0.62162
HEad  0.31437 4.17393 -6.13066
LeftShoulder1  8.96721 -13.3039 -46.5442
LeftArm  -9.87698 16.4653 -22.2193
LeftForeArm  28.6226 -74.099 -41.6409
LeftHand  -0.25398 0.0180481 5.50724
RightShoulder  4.69483 8.40326 33.4853
RightArm  -11.248 -28.9639 23.2559
RightForeArm  57.6208 76.2806 116.833
RightHand  1.20446 -16.538 -13.214
LeftUpLeg  16.5393 11.4484 3.65139
LeftLeg  33.9175 -12.0687 -8.26044
LeftFoot  -2.55074 1.02333 -12.7545
LeftToes  1.06247e-005 4.65855e-005 -8.18501e-006
